<svg version="1.1" xmlns="http://www.w3.org/2000/svg" xmlns:xlink="http://www.w3.org/1999/xlink" width="173.14227" height="126.79077" viewBox="0,0,173.14227,126.79077"><g transform="translate(-182.47348,-135.28776)"><g data-paper-data="{&quot;isPaintingLayer&quot;:true}" fill-rule="nonzero" stroke-linejoin="miter" stroke-miterlimit="10" stroke-dasharray="" stroke-dashoffset="0" style="mix-blend-mode: normal"><path d="M183.47348,223.71224c0,0 0,-64.02918 0,-77.6042c0,-4.82903 5.21873,-9.82028 10.53884,-9.82028c13.36263,0 70.49181,0 92.69391,0c5.36671,0 9.82028,5.27072 9.82028,10.29932c0,13.76072 0,77.12516 0,77.12516z" fill="#f0f0f0" stroke="#d2d2d2" stroke-width="2" stroke-linecap="butt"/><path d="M183.47348,146.10804c0,-4.82903 5.21873,-9.82028 10.53884,-9.82028c13.36263,0 70.49181,0 92.69391,0c5.36671,0 9.82028,5.27072 9.82028,10.29932c0,0.38242 -113.05303,-0.11436 -113.05303,-0.47904z" fill="#ffffff" stroke="#e4e4e4" stroke-width="2" stroke-linecap="butt"/><path d="M215.80857,159.04208l48.74214,48.74214" fill="none" stroke="#848484" stroke-width="5" stroke-linecap="round"/><path d="M264.55071,159.04208l-48.74214,48.74214" data-paper-data="{&quot;index&quot;:null}" fill="none" stroke="#848484" stroke-width="5" stroke-linecap="round"/><g stroke-width="1"><g data-paper-data="{&quot;index&quot;:null}" fill="#dadada" stroke="#3e3e3e" stroke-linecap="butt"><path d="M276.38795,213.61942c0.17301,-0.06975 0.3937,-0.08358 0.66694,0.03078c0.12253,0.05128 -1.95456,5.06571 -2.34185,6.88645l-0.01438,0.0233l0.00768,0.00214l-0.29876,1.07098c-0.02475,0.09748 -0.06647,0.19241 -0.12597,0.28056c-0.27673,0.40993 -0.83337,0.51791 -1.24329,0.24118c-0.11405,-0.077 -0.20473,-0.17566 -0.27026,-0.28679c-0.12058,0.28678 -0.27115,0.58164 -0.38057,0.88358c-0.17256,0.47616 -0.45317,1.83488 -0.63697,2.25055c-0.44051,0.99627 -1.22566,1.82465 -1.68724,2.83471l-0.06315,0.04648l0.02436,0.01645l-0.50106,0.74224c-0.06725,0.09962 -0.15103,0.1814 -0.24522,0.24417c-0.03501,0.24517 -0.08648,0.49116 -0.11099,0.7345c-0.17292,1.71691 -0.50001,3.44587 -1.61474,4.82201c-0.32544,0.40177 -0.55615,1.09918 -1.07276,1.12033c-0.38745,0.01585 -0.72637,-0.18266 -1.05637,-0.42061c0.03417,0.64428 -0.26436,1.23648 -0.49612,2.13635c-0.20411,0.79255 -0.20408,1.62714 -0.39131,2.42385c-0.14513,0.61759 -0.00858,1.49122 -0.5499,1.82206c-0.74504,0.45535 -1.55113,0.11263 -2.28887,-0.41333c0.02727,1.25574 -0.29856,2.65771 -0.65336,3.55167c-0.19323,0.48687 -0.30173,1.16857 -0.7899,1.3585c-0.60439,0.23514 -1.40357,0.08645 -1.92172,-0.30353c-0.54721,-0.41185 -0.60356,-1.2298 -0.92154,-1.83639c-0.55409,-1.05702 -1.14565,-2.03052 -1.82859,-2.98245c-0.124,0.08448 -0.26869,0.17625 -0.43633,0.27628c-1.1649,0.69516 -2.79421,0.48084 -3.69987,-0.57026c-0.4874,-0.56567 -0.59751,-1.3749 -0.78791,-2.0969c-0.4371,-1.65759 0.20422,-3.33548 0.35806,-4.96358c0.13362,-1.41413 0.42625,-2.83231 0.97961,-4.19156c0.44754,-1.09933 1.0525,-2.13116 1.66895,-3.14546c0.13577,-0.22341 0.45773,-0.3512 0.49259,-0.61029c0.05365,-0.39879 -0.31366,-0.78306 -0.25165,-1.18064c0.24438,-1.56689 1.87119,-3.29017 2.92741,-4.35981c0.80483,-0.24998 2.23281,-1.02096 3.07471,-0.85497c0.05641,0.01112 -0.11637,-0.02127 -0.16402,-0.05347c-0.27485,-0.18576 -0.69857,-0.27922 -0.797,-0.59603c-0.54211,-1.74479 0.35791,-2.40327 1.64114,-3.3874c1.2045,-0.92376 3.08617,-1.75298 4.47782,-2.34466c0.64153,-0.27276 2.26355,-0.98194 3.11138,-0.92716c1.52955,0.09883 2.84317,0.93614 4.27757,1.29011c1.17521,0.29001 2.54687,0.21349 3.74699,0.40437c0.06229,0.00991 0.12445,0.0205 0.18648,0.03169z"/><path d="M287.47058,211.67409c0.54031,1.85836 -8.22678,2.74835 -10.6716,3.67906c-2.44482,0.93072 -6.49274,2.86382 -8.30378,4.02978c-4.10304,2.64157 -9.48208,9.11936 -9.48208,9.11936c0,0 4.85356,-6.83152 8.23648,-9.87763c1.80633,-1.62649 6.49268,-4.3121 8.15912,-5.16869c4.7874,-2.46084 11.49551,-3.72978 12.06186,-1.78189z"/></g><g data-paper-data="{&quot;index&quot;:null}" fill="#dadada" stroke="#3e3e3e" stroke-linecap="butt"><path d="M281.48367,200.19853c0.16258,0.09146 0.31131,0.25509 0.3928,0.53987c0.03654,0.1277 -5.17603,1.64025 -6.83941,2.47587l-0.02718,0.00334l0.00313,0.00733l-1.02276,0.43613c-0.09156,0.0416 -0.19174,0.06837 -0.29775,0.07702c-0.49296,0.04018 -0.92514,-0.32686 -0.96532,-0.81982c-0.01118,-0.13715 0.00917,-0.2696 0.05497,-0.39021c-0.29923,0.08511 -0.62351,0.15185 -0.9276,0.25514c-0.47956,0.1629 -1.71559,0.79303 -2.15494,0.90934c-1.05304,0.27878 -2.1904,0.1836 -3.26738,0.45456l-0.07576,-0.02025l0.00239,0.0293l-0.89257,0.07275c-0.1198,0.00977 -0.23601,-0.00452 -0.34387,-0.03882c-0.21326,0.12591 -0.43746,0.23946 -0.64274,0.37241c-1.44834,0.93807 -3.00245,1.76332 -4.7734,1.7532c-0.51703,-0.00295 -1.20565,0.25283 -1.54502,-0.13723c-0.25453,-0.29255 -0.31139,-0.68118 -0.33189,-1.08751c-0.48159,0.42935 -1.13046,0.56642 -1.97778,0.94792c-0.74626,0.336 -1.39775,0.85764 -2.1367,1.20942c-0.57281,0.27269 -1.16945,0.9253 -1.76604,0.70951c-0.82111,-0.29701 -1.05737,-1.14047 -1.10788,-2.04509c-0.96323,0.80612 -2.26129,1.42799 -3.18089,1.70974c-0.50084,0.15345 -1.1008,0.49481 -1.55416,0.23243c-0.56129,-0.32484 -0.94471,-1.04163 -0.96412,-1.68986c-0.0205,-0.68458 0.5828,-1.23978 0.85759,-1.86711c0.47885,-1.09317 0.86906,-2.16339 1.18534,-3.29147c-0.14344,-0.044 -0.30552,-0.0996 -0.48838,-0.16794c-1.27071,-0.47489 -2.12172,-1.88073 -1.86723,-3.24464c0.13696,-0.73401 0.69985,-1.32574 1.14447,-1.92561c1.02078,-1.3772 2.73141,-1.92523 4.0985,-2.82269c1.18742,-0.77951 2.47739,-1.43743 3.8843,-1.85499c1.13788,-0.33771 2.32145,-0.51035 3.49853,-0.66306c0.25925,-0.03363 0.56024,0.13782 0.78428,0.0031c0.34484,-0.20736 0.41524,-0.73427 0.76436,-0.93434c1.3759,-0.78853 3.73789,-0.59563 5.23302,-0.43963c0.69815,0.47204 2.19248,1.10491 2.58908,1.86586c0.02658,0.05099 -0.05613,-0.10413 -0.06077,-0.16145c-0.02678,-0.33066 -0.21863,-0.71984 -0.03284,-0.99468c1.02322,-1.51367 2.09975,-1.22264 3.67001,-0.83599c1.47391,0.36293 3.29727,1.31355 4.62893,2.03012c0.61388,0.33033 2.18123,1.15329 2.66836,1.84936c0.87881,1.25578 1.04618,2.80454 1.66636,4.14551c0.50811,1.09866 1.42512,2.12159 2.02617,3.17774c0.0312,0.05482 0.06177,0.10996 0.09181,0.16538z"/><path d="M289.92883,207.63414c-1.113,1.58325 -7.28713,-4.70436 -9.54167,-6.03118c-2.25455,-1.32681 -6.2935,-3.27856 -8.33558,-3.96359c-4.62646,-1.552 -13.04508,-1.70245 -13.04508,-1.70245c0,0 8.36634,-0.48082 12.85852,0.25619c2.39862,0.39354 7.42403,2.37335 9.13424,3.13886c4.9131,2.19918 10.0962,6.64265 8.92958,8.30217z"/></g><g stroke-linecap="butt"><g data-paper-data="{&quot;index&quot;:null}" fill="#f3f3f3" stroke="#c7c7c7"><path d="M305.6399,215.75337c-0.22995,-0.29909 3.79754,-1.26803 3.88124,-0.91171c0.50357,2.14376 -1.5727,5.57634 -2.64447,5.8281c-0.58042,0.13634 0.11957,-3.15223 -1.23677,-4.91639z"/><path d="M304.28283,215.36859c-0.04342,-0.28524 3.01125,0.55457 2.9356,0.82407c-0.45517,1.62145 -3.11398,3.1523 -3.92462,2.92473c-0.43901,-0.12324 1.24512,-2.06634 0.98902,-3.74881z"/></g><g fill="#f3f3f3" stroke="#c7c7c7"><path d="M294.6172,212.84238c-1.98807,0.99974 -2.78625,4.26588 -3.24981,3.89092c-0.85598,-0.69238 -1.23486,-4.68611 0.15003,-6.39824c0.23019,-0.28458 3.43682,2.33782 3.09978,2.50732z"/><path d="M295.2689,216.89158c-0.82901,-0.1472 -2.55876,-2.68112 -2.26432,-4.3393c0.04894,-0.27561 3.16513,0.29501 3.00211,0.53307c-0.96158,1.40415 -0.28883,3.88595 -0.73779,3.80623z"/></g><path d="M282.57057,213.92282c0,0 7.00402,-14.66828 8.47838,-17.75599c0.35477,-0.74299 1.10546,-1.76492 5.07325,-1.30944c1.8512,0.21251 7.1635,1.65373 8.44865,1.94747c2.86593,0.65505 7.97592,1.41435 10.24101,2.83299c0.75477,0.47271 0.97217,1.98768 0.98066,2.30461c0.09409,3.51338 0.53217,19.87182 0.53217,19.87182c0,0 -5.41377,0.33076 -6.30869,-0.68129c-0.49534,-0.56018 -0.97417,-5.09291 -0.97417,-5.09291c0,0 -5.98766,-0.17174 -9.66478,-1.11819c-3.67712,-0.94645 -8.17009,-3.47229 -8.17009,-3.47229c0,0 -2.34348,3.75133 -3.47299,4.43895c-0.4272,0.26006 -5.1634,-1.96572 -5.1634,-1.96572z" fill="#dadada" stroke="#3e3e3e"/></g><g fill="#dadada" stroke="#3e3e3e" stroke-linecap="butt"><path d="M318.43199,206.54917c-0.17315,-0.06939 -0.34203,-0.21214 -0.46011,-0.48379c-0.05295,-0.12182 4.91671,-2.30385 6.45636,-3.35008l0.0265,-0.00687l-0.00406,-0.00686l0.95685,-0.56629c0.08533,-0.05323 0.18114,-0.09289 0.2851,-0.11533c0.48345,-0.10438 0.95998,0.20292 1.06436,0.68636c0.02904,0.13451 0.02622,0.26848 -0.00341,0.39405c0.28551,-0.12355 0.59827,-0.23219 0.88621,-0.3744c0.4541,-0.22428 1.59698,-1.01083 2.01733,-1.18367c1.00747,-0.41426 2.14751,-0.46883 3.17973,-0.87846l0.07776,0.01015l-0.0062,-0.02873l0.87536,-0.189c0.11749,-0.02537 0.23457,-0.02641 0.346,-0.00654c0.19495,-0.15274 0.40234,-0.29468 0.58844,-0.45337c1.31305,-1.11964 2.74572,-2.14126 4.50276,-2.36312c0.51297,-0.06477 1.16217,-0.40852 1.54969,-0.06625c0.29064,0.2567 0.39791,0.63455 0.47143,1.03469c0.42122,-0.48871 1.04656,-0.70956 1.83663,-1.19872c0.69584,-0.43082 1.27342,-1.03327 1.95994,-1.47878c0.53218,-0.34535 1.03823,-1.07046 1.65793,-0.93464c0.85293,0.18693 1.19758,0.9922 1.36611,1.88243c0.84939,-0.9253 2.05484,-1.71177 2.92963,-2.11151c0.47644,-0.21771 1.02653,-0.63468 1.51035,-0.43393c0.59899,0.24855 1.07296,0.90897 1.17708,1.54907c0.10996,0.676 -0.41545,1.30541 -0.60574,1.96333c-0.33159,1.14646 -0.57831,2.25856 -0.74416,3.41833c0.14797,0.02484 0.31593,0.05874 0.50616,0.10255c1.32195,0.30442 2.34971,1.58672 2.27599,2.97222c-0.03967,0.74563 -0.52023,1.40596 -0.88249,2.05888c-0.83167,1.499 -2.45582,2.26629 -3.69363,3.33503c-1.07513,0.92828 -2.26785,1.74943 -3.60798,2.34761c-1.08386,0.48379 -2.23465,0.80992 -3.38159,1.11544c-0.25262,0.06729 -0.57346,-0.06328 -0.77793,0.09962c-0.31472,0.25073 -0.31553,0.78231 -0.63544,1.02638c-1.2608,0.96189 -3.62772,1.07993 -5.1304,1.12103c-0.75394,-0.37657 -2.31828,-0.80832 -2.8111,-1.51079c-0.03302,-0.04707 0.06928,0.09589 0.08139,0.1521c0.06984,0.3243 0.311,0.68502 0.1628,0.98181c-0.81622,1.63462 -1.92159,1.48704 -3.52895,1.30932c-1.50875,-0.16681 -3.44087,-0.87052 -4.85489,-1.40656c-0.65185,-0.24711 -2.31346,-0.85776 -2.88753,-1.48406c-1.03567,-1.1299 -1.40439,-2.64342 -2.19481,-3.89164c-0.64759,-1.02267 -1.69064,-1.91673 -2.42481,-2.88508c-0.0381,-0.05026 -0.07564,-0.10092 -0.11268,-0.15194z"/><path d="M319.02571,207.34485c-5.15875,-1.53695 -10.87904,-5.26351 -9.93976,-7.06151c0.89611,-1.71535 7.84036,3.70973 10.24922,4.72991c2.40886,1.02019 6.6686,2.42629 8.78279,2.83805c4.78984,0.93286 13.15569,-0.02027 13.15569,-0.02027c0,0 -8.23136,1.57214 -12.78136,1.42965c-2.4295,-0.07608 -7.67087,-1.38085 -9.46659,-1.91584z"/></g><g data-paper-data="{&quot;index&quot;:null}" fill="#dadada" stroke="#3e3e3e" stroke-linecap="butt"><path d="M318.76614,224.76075c0.05913,0.02185 0.11806,0.04429 0.17675,0.06737c1.13085,0.44483 2.27375,1.20712 3.43348,1.55391c1.4155,0.42327 2.97233,0.3688 4.34028,1.06018c0.75825,0.38324 1.79564,1.8177 2.20987,2.37839c0.89858,1.21628 2.09873,2.88599 2.66748,4.29336c0.60592,1.49935 1.04703,2.52358 -0.30583,3.75157c-0.24564,0.22297 -0.65814,0.08838 -0.98925,0.10887c-0.0574,0.00355 -0.2227,-0.05626 -0.16845,-0.03721c0.8096,0.28441 1.64845,1.67361 2.21493,2.29758c0.36694,1.45777 0.89362,3.76836 0.30867,5.24237c-0.14842,0.37401 -0.65996,0.5186 -0.8162,0.88941c-0.10151,0.24092 0.11099,0.51447 0.11454,0.77587c0.01615,1.18682 0.0135,2.38292 -0.15904,3.55725c-0.21333,1.45198 -0.68121,2.82237 -1.28403,4.10854c-0.69402,1.48077 -0.99334,3.25194 -2.21146,4.45811c-0.53058,0.52537 -1.03629,1.16665 -1.74338,1.40656c-1.31389,0.44578 -2.82641,-0.19676 -3.4771,-1.38707c-0.09364,-0.17129 -0.17171,-0.32381 -0.23565,-0.45955c-1.07166,0.4734 -2.07555,1.01179 -3.08956,1.64115c-0.58191,0.36117 -1.04571,1.03726 -1.72625,1.11428c-0.6444,0.07292 -1.40842,-0.20471 -1.80974,-0.71413c-0.32416,-0.41147 -0.07154,-1.05386 0.00916,-1.57142c0.14818,-0.95031 0.57922,-2.32358 1.24024,-3.39161c-0.90262,0.07859 -1.7711,-0.03538 -2.1818,-0.80593c-0.2984,-0.55985 0.26277,-1.2432 0.45128,-1.84896c0.24317,-0.78145 0.66691,-1.50047 0.89343,-2.28691c0.25718,-0.89294 0.30063,-1.55471 0.65717,-2.09243c-0.40511,0.03747 -0.79789,0.03643 -1.12364,-0.17393c-0.43434,-0.28049 -0.27904,-0.99847 -0.35545,-1.50983c-0.26174,-1.75154 0.33422,-3.40717 1.0569,-4.97415c0.10243,-0.22209 0.18296,-0.46015 0.27727,-0.68915c-0.04928,-0.1019 -0.07994,-0.21489 -0.08731,-0.33486l-0.05486,-0.89385l0.02933,-0.0018l-0.03081,-0.07211c0.11512,-1.10455 -0.14076,-2.21685 -0.01449,-3.29882c0.05268,-0.45143 0.50072,-1.76448 0.5938,-2.26232c0.05902,-0.31568 0.079,-0.64616 0.1207,-0.95445c-0.11288,0.06249 -0.24109,0.10145 -0.37844,0.10988c-0.49366,0.0303 -0.91841,-0.34533 -0.94871,-0.83899c-0.00652,-0.10615 0.00575,-0.20912 0.03391,-0.30567l0.28632,-1.07437l0.0077,0.00206l-0.00056,-0.02737c0.5907,-1.76527 1.34695,-7.13993 1.47855,-7.1219c0.29347,0.04019 0.47658,0.16415 0.59022,0.31207z"/><path d="M310.2056,217.45826c1.47685,-1.39067 6.61195,3.10819 9.48716,7.65881c1.00083,1.58402 3.67487,6.27699 4.40535,8.59532c1.36806,4.34181 2.08134,12.69154 2.08134,12.69154c0,0 -1.34558,-8.31175 -3.53943,-12.67063c-0.96835,-1.92397 -3.47439,-5.64449 -5.10819,-7.68755c-1.6338,-2.04305 -8.73518,-7.26075 -7.32622,-8.5875z"/></g><g data-paper-data="{&quot;index&quot;:null}" fill="#dadada" stroke="#3e3e3e" stroke-linecap="butt"><path d="M321.18956,210.61103c0.05401,-0.03249 0.10835,-0.06448 0.16306,-0.09587c1.05402,-0.60477 2.36339,-1.02052 3.35893,-1.70909c1.2151,-0.84044 2.14558,-2.0898 3.54025,-2.72554c0.77306,-0.35239 2.54121,-0.26568 3.2378,-0.23862c1.51107,0.05871 3.56459,0.1654 5.01868,0.60101c1.54914,0.46408 2.62437,0.75989 2.73745,2.58345c0.02053,0.3311 -0.34234,0.569 -0.53328,0.84028c-0.0331,0.04702 -0.18311,0.13868 -0.13432,0.10824c0.72802,-0.45424 2.33674,-0.24083 3.17788,-0.29308c1.36731,0.62465 3.5002,1.65762 4.28527,3.03549c0.1992,0.34962 -0.00764,0.8393 0.18418,1.19303c0.12462,0.22981 0.47098,0.2349 0.67726,0.3955c0.93657,0.72915 1.86862,1.47877 2.6775,2.34741c1.00013,1.07402 1.77748,2.29574 2.40474,3.57016c0.72217,1.46726 1.91773,2.80788 2.09799,4.51262c0.07851,0.74254 0.26305,1.53811 0.0084,2.24002c-0.47318,1.30427 -1.92009,2.08341 -3.25595,1.84743c-0.19223,-0.03396 -0.3601,-0.06835 -0.50602,-0.10326c-0.30023,1.13245 -0.50737,2.2526 -0.64982,3.43751c-0.08174,0.67999 0.15616,1.4646 -0.20905,2.04398c-0.34582,0.54862 -1.04006,0.97151 -1.68855,0.96641c-0.5238,-0.00412 -0.86739,-0.6028 -1.22098,-0.98928c-0.64923,-0.70961 -1.45185,-1.90438 -1.87245,-3.08791c-0.50278,0.75373 -1.13454,1.36046 -1.99275,1.19948c-0.62354,-0.11697 -0.80625,-0.98212 -1.16131,-1.50787c-0.45804,-0.67823 -0.7545,-1.4584 -1.22685,-2.12674c-0.53632,-0.75885 -1.02576,-1.20636 -1.22269,-1.82076c-0.22394,0.33966 -0.47024,0.64562 -0.83805,0.76844c-0.49041,0.16376 -0.95383,-0.40621 -1.40077,-0.66616c-1.53089,-0.89038 -2.45085,-2.39036 -3.22241,-3.93385c-0.10936,-0.21876 -0.24486,-0.43041 -0.36468,-0.64716c-0.11034,-0.02521 -0.21771,-0.0719 -0.31597,-0.14113l-0.73205,-0.51583l0.01693,-0.02403l-0.07555,-0.02102c-0.7903,-0.78021 -1.81851,-1.27563 -2.58421,-2.05043c-0.31947,-0.32326 -1.06445,-1.49366 -1.39491,-1.87747c-0.20954,-0.24337 -0.45504,-0.46551 -0.66963,-0.69075c-0.02177,0.12717 -0.07148,0.25161 -0.15075,0.36409c-0.28489,0.4043 -0.84358,0.50112 -1.24788,0.21623c-0.08694,-0.06126 -0.15966,-0.13519 -0.21742,-0.21752l-0.65973,-0.89498l0.00642,-0.00473l-0.02172,-0.01667c-1.00883,-1.5644 -4.73179,-5.51387 -4.63547,-5.60534c0.21479,-0.20397 0.426,-0.26943 0.6125,-0.2657z"/><path d="M310.13875,212.72964c-0.16258,-2.02203 6.55877,-3.21887 11.90811,-2.61924c1.86205,0.20873 7.19678,1.05437 9.46308,1.93307c4.24437,1.64565 11.20821,6.30738 11.20821,6.30738c0,0 -7.32938,-4.1444 -12.1032,-5.15608c-2.10712,-0.44655 -6.57773,-0.81556 -9.19372,-0.81706c-2.61599,-0.00149 -11.12739,2.28103 -11.28249,0.35194z"/></g><g data-paper-data="{&quot;index&quot;:null}" fill="#dadada" stroke="#3e3e3e" stroke-linecap="butt"><path d="M285.9216,198.09905c-0.05781,0.02515 -0.11588,0.04974 -0.17422,0.07369c-1.12413,0.46154 -2.47667,0.70228 -3.55379,1.25458c-1.31468,0.6741 -2.40074,1.79087 -3.86665,2.23853c-0.81255,0.24813 -2.55412,-0.06934 -3.24116,-0.18738c-1.49038,-0.25606 -3.51224,-0.6307 -4.89678,-1.25295c-1.47504,-0.66293 -2.50228,-1.09697 -2.37562,-2.91964c0.023,-0.33094 0.4139,-0.51928 0.63871,-0.76322c0.03897,-0.04229 0.19969,-0.11351 0.14734,-0.08972c-0.78122,0.35501 -2.34816,-0.06722 -3.18889,-0.12555c-1.27376,-0.7983 -3.25304,-2.10165 -3.85093,-3.57045c-0.1517,-0.37269 0.11747,-0.83108 -0.02638,-1.20688c-0.09346,-0.24415 -0.43617,-0.29454 -0.61964,-0.48077c-0.83303,-0.8455 -1.65892,-1.71071 -2.34709,-2.67778c-0.85089,-1.19572 -1.46158,-2.50871 -1.91657,-3.85429c-0.52384,-1.54918 -1.53357,-3.0348 -1.48907,-4.74847c0.01938,-0.74643 -0.0594,-1.55931 0.28497,-2.22184c0.63989,-1.23108 2.17635,-1.81406 3.46982,-1.4052c0.18613,0.05883 0.34805,0.1149 0.48814,0.16862c0.44592,-1.08339 0.79795,-2.16677 1.09432,-3.32284c0.17007,-0.66343 0.03696,-1.47244 0.47489,-1.99901c0.41468,-0.49861 1.15831,-0.82696 1.80055,-0.737c0.51875,0.07267 0.781,0.71118 1.08094,1.14063c0.55073,0.78851 1.18999,2.07808 1.45202,3.30649c0.59715,-0.68141 1.30291,-1.2002 2.13265,-0.92823c0.60286,0.1976 0.67071,1.07923 0.95387,1.64694c0.36529,0.73237 0.55704,1.54463 0.93782,2.26907c0.43234,0.82254 0.85897,1.33029 0.97376,1.96518c0.26649,-0.30742 0.55073,-0.57849 0.93145,-0.65209c0.50764,-0.09814 0.89243,0.5276 1.30149,0.84383c1.40113,1.08316 2.11677,2.69069 2.67959,4.32192c0.07977,0.23119 0.18639,0.45877 0.2768,0.68934c0.10609,0.03945 0.20643,0.09979 0.29477,0.18129l0.65821,0.60724l-0.01993,0.0216l0.07215,0.03073c0.68134,0.87697 1.63582,1.50276 2.29349,2.37114c0.2744,0.36232 0.85972,1.62019 1.13708,2.04395c0.17587,0.26871 0.39017,0.52109 0.57343,0.77248c0.03823,-0.12323 0.10381,-0.24008 0.19712,-0.34122c0.33536,-0.36352 0.90192,-0.38634 1.26544,-0.05097c0.07817,0.07212 0.14059,0.15492 0.18708,0.24411l0.53686,0.97366l-0.00698,0.00385l0.01935,0.01937c0.79532,1.68302 3.9691,6.08597 3.86164,6.16404c-0.23965,0.17409 -0.45761,0.21133 -0.64202,0.18321z"/><path d="M285.00613,198.48311c-1.81869,-0.45074 -6.99677,-1.9876 -9.12851,-3.15548c-3.99236,-2.18722 -10.28587,-7.72063 -10.28587,-7.72063c0,0 6.72364,5.06839 11.32389,6.69643c2.03051,0.7186 6.41431,1.6698 9.00758,2.01381c2.59327,0.34401 11.33027,-0.80442 11.23145,1.12837c-0.10358,2.02591 -6.92378,2.33239 -12.14855,1.03751z"/></g><path d="M293.99209,201.45213l3.67694,10.99472" fill="none" stroke="#000000" stroke-linecap="round"/><path d="M298.75849,202.90732l-5.08416,7.4376" fill="none" stroke="#000000" stroke-linecap="round"/><path d="M306.58496,214.1775l-3.67694,-10.99472" data-paper-data="{&quot;index&quot;:null}" fill="none" stroke="#000000" stroke-linecap="round"/><path d="M301.81856,212.72232l5.08416,-7.4376" data-paper-data="{&quot;index&quot;:null}" fill="none" stroke="#000000" stroke-linecap="round"/></g></g></g></svg>