<svg version="1.1" xmlns="http://www.w3.org/2000/svg" xmlns:xlink="http://www.w3.org/1999/xlink" width="115.05303" height="89.42448" viewBox="0,0,115.05303,89.42448"><g transform="translate(-182.47348,-135.28776)"><g data-paper-data="{&quot;isPaintingLayer&quot;:true}" fill-rule="nonzero" stroke-linejoin="miter" stroke-miterlimit="10" stroke-dasharray="" stroke-dashoffset="0" style="mix-blend-mode: normal"><path d="M183.47348,223.71224c0,0 0,-64.02918 0,-77.6042c0,-4.82903 5.21873,-9.82028 10.53884,-9.82028c13.36263,0 70.49181,0 92.69391,0c5.36671,0 9.82028,5.27072 9.82028,10.29932c0,13.76072 0,77.12516 0,77.12516z" fill="#f0f0f0" stroke="#d2d2d2" stroke-width="2" stroke-linecap="butt"/><path d="M183.47348,146.10804c0,-4.82903 5.21873,-9.82028 10.53884,-9.82028c13.36263,0 70.49181,0 92.69391,0c5.36671,0 9.82028,5.27072 9.82028,10.29932c0,0.38242 -113.05303,-0.11436 -113.05303,-0.47904z" fill="#ffffff" stroke="#e4e4e4" stroke-width="2" stroke-linecap="butt"/><path d="M215.80857,159.04208l48.74214,48.74214" fill="none" stroke="#848484" stroke-width="5" stroke-linecap="round"/><path d="M264.55071,159.04208l-48.74214,48.74214" data-paper-data="{&quot;index&quot;:null}" fill="none" stroke="#848484" stroke-width="5" stroke-linecap="round"/></g></g></svg>