<svg version="1.1" xmlns="http://www.w3.org/2000/svg" xmlns:xlink="http://www.w3.org/1999/xlink" width="279.43763" height="333.00891" viewBox="0,0,279.43763,333.00891"><g transform="translate(-117.79077,-12.42591)"><g data-paper-data="{&quot;isPaintingLayer&quot;:true}" fill-rule="nonzero" stroke-width="2" stroke-linecap="butt" stroke-linejoin="miter" stroke-miterlimit="10" stroke-dasharray="" stroke-dashoffset="0" style="mix-blend-mode: normal"><g><path d="M276.7363,235.11683c28.94667,5.92703 51.23244,11.51024 50.37339,15.70569c-0.42789,2.08973 -2.76519,8.33011 -11.27042,9.79084c-8.57031,1.47191 -23.36214,-1.85501 -37.89064,-4.82982c-10.9772,-2.24766 -41.5096,-9.92972 -50.52032,-13.21931c-14.75036,-5.38498 -9.46049,-12.06385 -8.92722,-14.6683c0.85905,-4.19545 29.28853,1.2939 58.23519,7.22092z" fill="#dadada" stroke="#3e3e3e"/><path d="M351.05596,245.51555c-13.66622,-2.35876 -24.68947,-0.95441 -24.27519,-4.01782c0.41429,-3.06341 11.82879,-3.63465 25.49501,-1.27589c13.66622,2.35876 29.62124,9.20198 29.20696,12.26539c-0.18096,1.33808 -7.61933,-1.35355 -11.20839,-2.24936c-0.50961,-0.12719 1.39247,3.26294 6.43584,5.47954c4.04121,1.77615 11.34268,2.27459 11.75828,3.51807c0.67568,2.02162 -10.55471,1.94462 -18.65085,-1.84959c-4.77007,-2.23547 -7.22054,-7.5701 -8.81991,-9.66054c-1.56384,-2.044 -6.41187,-1.60055 -9.94176,-2.20979z" data-paper-data="{&quot;index&quot;:null}" fill="#dadada" stroke="#3e3e3e"/><g fill="#dadada" stroke="#3e3e3e"><g><path d="M229.60735,211.31021c1.50597,-0.15344 15.96479,-4.38828 17.25337,-3.97532c0.89178,0.28579 2.43588,2.12915 3.41179,3.85027c2.40744,4.24577 1.18902,11.87544 1.02019,13.20401c-0.92466,7.27679 -2.5993,12.70606 -14.45235,10.74308c-11.85305,-1.96298 -19.23629,-4.30244 -18.31163,-11.57924c0.58852,-4.63147 2.11578,-11.32963 11.07863,-12.2428z"/><path d="M250.51844,215.82917c1.50597,-0.15344 15.96479,-4.38828 17.25337,-3.97532c0.89178,0.28579 2.43588,2.12915 3.41179,3.85027c2.40744,4.24577 1.18902,11.87544 1.02019,13.20401c-0.92466,7.27679 -2.5993,12.70606 -14.45235,10.74308c-11.85305,-1.96298 -19.23629,-4.30244 -18.31163,-11.57924c0.58852,-4.63147 2.11578,-11.32963 11.07863,-12.2428z"/></g><g><path d="M271.10046,223.00052c1.32778,-0.13528 14.07574,-3.86903 15.21184,-3.50494c0.78626,0.25197 2.14765,1.87721 3.00808,3.39469c2.12258,3.74338 1.04833,10.47025 0.89947,11.64162c-0.81525,6.41576 -2.29174,11.2026 -12.74226,9.47189c-10.45051,-1.73071 -16.96013,-3.79335 -16.14488,-10.20911c0.51888,-4.08344 1.86542,-9.98903 9.76774,-10.79415z"/><path d="M289.53722,226.98476c1.32778,-0.13528 14.07574,-3.86903 15.21185,-3.50494c0.78626,0.25197 2.14765,1.87721 3.00809,3.39468c2.12258,3.74338 1.04833,10.47026 0.89947,11.64162c-0.81525,6.41576 -2.29174,11.2026 -12.74226,9.47189c-10.45051,-1.73071 -16.96013,-3.79335 -16.14488,-10.20911c0.51888,-4.08344 1.86543,-9.98903 9.76774,-10.79415z"/></g></g><g fill="#dadada" stroke="#3e3e3e"><g><path d="M302.04008,231.16421c0.55463,-0.21774 6.08132,-4.24818 6.51615,-4.05216c0.30094,0.13565 0.72355,1.31782 0.95005,2.45559c0.55875,2.80674 -0.43795,8.25526 -0.59586,9.20086c-0.86493,5.1792 -1.86561,9.11532 -5.99951,8.60177c-4.13389,-0.51356 -6.62735,-1.61791 -5.76243,-6.7971c0.5505,-3.2964 1.59064,-8.11312 4.89158,-9.40895z"/><path d="M309.25597,232.81193c0.55463,-0.21774 6.08132,-4.24817 6.51616,-4.05215c0.30094,0.13565 0.72356,1.31782 0.95006,2.45559c0.55875,2.80674 -0.43795,8.25526 -0.59586,9.20086c-0.86493,5.1792 -1.86562,9.11532 -5.99951,8.60177c-4.13389,-0.51356 -6.62735,-1.61791 -5.76242,-6.79711c0.5505,-3.2964 1.59063,-8.11312 4.89157,-9.40896z"/></g><g><path d="M316.1595,236.34689c0.48901,-0.19197 5.36173,-3.74549 5.74511,-3.57268c0.26533,0.1196 0.63794,1.16188 0.83764,2.16502c0.49265,2.47463 -0.38613,7.27843 -0.52535,8.11215c-0.76259,4.56635 -1.64486,8.03674 -5.28961,7.58395c-3.64474,-0.45279 -5.84316,-1.42647 -5.08058,-5.99283c0.48536,-2.90635 1.40243,-7.15313 4.31278,-8.29562z"/><path d="M322.52157,237.79965c0.48901,-0.19197 5.36174,-3.7455 5.74513,-3.57268c0.26533,0.1196 0.63793,1.16188 0.83763,2.16502c0.49265,2.47463 -0.38612,7.27845 -0.52535,8.11215c-0.76259,4.56635 -1.64486,8.03674 -5.28961,7.58395c-3.64474,-0.45279 -5.84316,-1.42647 -5.08058,-5.99283c0.48536,-2.90635 1.40243,-7.15312 4.31278,-8.29562z"/></g></g><path d="M396.2284,262.11457c-0.50339,2.45849 -18.25706,1.72811 -38.54678,-2.42635c-20.28972,-4.15446 -35.43218,-10.15978 -34.92879,-12.61827c0.50339,-2.4585 16.73949,-0.54802 37.02921,3.60644c20.28972,4.15446 36.94975,8.97969 36.44636,11.43818z" fill="#dadada" stroke="#3e3e3e"/><path d="M358.13255,258.39494c2.26989,-1.18428 6.55849,-4.82681 11.80732,-4.92952c8.90873,-0.17432 19.29381,4.031 17.90185,5.5076c-0.85618,0.90824 -7.77861,-1.44137 -12.18064,-1.45533c-5.49367,-0.01743 -8.53702,2.16624 -8.01871,2.25099c3.65026,0.59691 11.53309,1.11789 11.19102,2.33413c-0.78311,2.78449 -18.09835,2.58435 -31.59742,-0.59077c-13.49907,-3.17512 -23.80738,-8.00635 -23.02426,-10.79085c0.78311,-2.78449 10.41377,2.61233 23.91283,5.78745c3.48671,0.82011 7.78854,3.04428 10.008,1.88629z" data-paper-data="{&quot;index&quot;:null}" fill="#dadada" stroke="#3e3e3e"/><path d="M315.83926,260.61337c-8.57031,1.4719 -23.36214,-1.85502 -37.89063,-4.82982c-10.9772,-2.24766 -41.50961,-9.92972 -50.52032,-13.21931c-8.11591,-2.96291 -10.16485,-6.31754 -10.2773,-9.16966c2.10033,0.99478 4.1261,2.28471 5.77589,3.31051c7.71901,4.7995 15.73251,7.81668 25.0358,7.66127c1.9861,-0.03318 6.79922,-1.29002 8.7676,-0.92677c11.3321,2.09128 10.85669,5.12424 19.60492,8.13271c4.04278,1.39029 8.01587,2.06482 12.43947,2.85183c4.63721,0.82502 8.53138,-0.61402 13.02489,-0.96519c2.60743,-0.20377 5.16901,0.86945 7.76531,0.60066c1.83069,-0.18952 5.12537,-1.70482 6.83268,-1.46498c2.83077,0.39766 5.84637,1.50523 8.87555,2.35466c-1.60891,2.33264 -4.47162,4.81185 -9.43386,5.66409z" fill="#be6a6a" stroke="#753030"/></g><g data-paper-data="{&quot;index&quot;:null}" fill="#dadada" stroke="#3e3e3e"><path d="M180.99655,109.1547c-2.28339,0.69684 -4.97307,0.91992 -7.18113,1.80289c-2.69504,1.07771 -5.02399,3.06314 -7.97335,3.67021c-1.63483,0.33649 -4.9832,-0.60357 -6.30545,-0.96033c-2.86829,-0.7739 -6.75445,-1.87714 -9.34864,-3.34794c-2.76374,-1.56693 -4.69354,-2.60412 -4.11185,-6.1461c0.10562,-0.64311 0.90473,-0.93988 1.38917,-1.37586c0.08397,-0.07557 0.41139,-0.18545 0.30463,-0.14851c-1.59312,0.55128 -4.58073,-0.56166 -6.21453,-0.8298c-2.34524,-1.79486 -5.97794,-4.70684 -6.87834,-7.68939c-0.22847,-0.75679 0.38203,-1.60408 0.1695,-2.3655c-0.13808,-0.49469 -0.79918,-0.65605 -1.12395,-1.05392c-1.47452,-1.80644 -2.93144,-3.65011 -4.10035,-5.6678c-1.44529,-2.49474 -2.39926,-5.17485 -3.04272,-7.89019c-0.74082,-3.12619 -2.44369,-6.21708 -2.04268,-9.56091c0.17467,-1.45647 0.1695,-3.06091 0.96447,-4.29375c1.47718,-2.29079 4.58934,-3.14962 7.04447,-2.1129c0.35331,0.14919 0.65974,0.28852 0.92392,0.41927c1.07071,-2.03742 1.95777,-4.09206 2.74927,-6.29904c0.45422,-1.26652 0.34205,-2.87334 1.29513,-3.8231c0.90247,-0.89932 2.41718,-1.40534 3.65694,-1.11171c1.00137,0.23718 1.39734,1.53418 1.90535,2.42913c0.93276,1.64323 1.94693,4.28278 2.23439,6.73358c1.29287,-1.22345 2.76839,-2.1089 4.34155,-1.42492c1.14299,0.49695 1.1142,2.23388 1.56406,3.39621c0.58034,1.49944 0.8066,3.12338 1.41867,4.61015c0.69496,1.6881 1.43644,2.75943 1.54466,4.02232c0.57757,-0.55249 1.18322,-1.03065 1.9414,-1.10486c1.01092,-0.09896 1.64896,1.19552 2.39114,1.889c2.54218,2.37538 3.64748,5.65084 4.44951,8.94467c0.11368,0.46685 0.28054,0.93152 0.41513,1.39907c0.2003,0.09659 0.38549,0.23301 0.54336,0.40861l1.17622,1.30836l-0.04294,0.03861l0.13549,0.07332c1.17203,1.84019 2.92439,3.23911 4.05168,5.05818c0.47035,0.75897 1.3848,3.32662 1.84968,4.20633c0.29477,0.55782 0.66771,1.09073 0.9801,1.61604c0.09735,-0.23402 0.24705,-0.45058 0.44809,-0.63132c0.72259,-0.64961 1.83496,-0.59046 2.48457,0.13213c0.13969,0.15538 0.2466,0.3288 0.3212,0.51176l0.87174,2.00287l-0.01436,0.00625l0.0343,0.04144c1.24731,3.43774 6.64863,12.63144 6.42412,12.76445c-0.50065,0.29663 -0.93382,0.32954 -1.28937,0.24074c-0.11767,0.0386 -0.23575,0.07606 -0.35426,0.11223z"/><path d="M179.48979,109.62603c-3.47481,-1.21485 -13.32166,-5.16966 -17.27742,-7.8446c-7.4084,-5.00968 -18.70484,-16.98615 -18.70484,-16.98615c0,0 12.22297,11.1457 20.92288,15.17297c3.84006,1.7776 12.24059,4.44132 17.25005,5.58931c5.00946,1.148 22.30958,0.50235 21.76219,4.26481c-0.57377,3.94374 -13.97035,3.29369 -23.95285,-0.19635z"/></g><g data-paper-data="{&quot;index&quot;:null}" fill="#dadada" stroke="#3e3e3e"><path d="M190.88858,125.08854c-0.68225,2.28779 -1.98391,4.65207 -2.46944,6.98004c-0.59259,2.8414 -0.22646,5.87979 -1.35182,8.67279c-0.62379,1.54815 -3.25881,3.81794 -4.28732,4.72227c-2.23108,1.9617 -5.29948,4.58932 -7.95958,5.93724c-2.83397,1.43603 -4.76538,2.47021 -7.39467,0.02669c-0.4774,-0.44367 -0.2827,-1.27357 -0.37802,-1.9183c-0.01652,-0.11175 0.07301,-0.44531 0.04475,-0.33594c-0.42178,1.63219 -3.00132,3.50581 -4.12829,4.71871c-2.79242,0.96129 -7.2276,2.37741 -10.21046,1.47808c-0.75688,-0.22819 -1.12516,-1.20543 -1.87707,-1.44946c-0.48851,-0.15855 -0.98857,0.30301 -1.49967,0.35355c-2.32052,0.22945 -4.66231,0.42364 -6.98981,0.28164c-2.87781,-0.17557 -5.63833,-0.863 -8.25647,-1.82862c-3.0143,-1.11173 -6.53123,-1.40239 -9.09536,-3.58579c-1.11686,-0.95103 -2.45646,-1.83406 -3.04394,-3.1782c-1.09162,-2.49762 -0.08597,-5.56549 2.13558,-7.03762c0.31969,-0.21185 0.60525,-0.3901 0.86028,-0.53789c-1.10532,-2.01886 -2.32655,-3.89423 -3.72755,-5.77423c-0.804,-1.07888 -2.20476,-1.87408 -2.46895,-3.19339c-0.25016,-1.24926 0.16596,-2.79109 1.09625,-3.6616c0.75141,-0.70312 2.051,-0.31572 3.07758,-0.24402c1.88492,0.13165 4.64494,0.7465 6.8458,1.86241c-0.30429,-1.75378 -0.22598,-3.47281 1.21392,-4.40521c1.04617,-0.67744 2.47736,0.30715 3.69455,0.57517c1.57021,0.34575 3.04833,1.05537 4.62554,1.36767c1.79079,0.3546 3.09344,0.32932 4.20547,0.93761c-0.14087,-0.78675 -0.20431,-1.55579 0.15318,-2.22852c0.47664,-0.89698 1.90799,-0.71265 2.89624,-0.94747c3.385,-0.80432 6.72522,0.08629 9.91303,1.23973c0.45182,0.16348 0.93125,0.28145 1.39523,0.42789c0.19125,-0.11346 0.40733,-0.19231 0.64094,-0.22672l1.74057,-0.25638l0.00842,0.05712l0.13602,-0.07233c2.18134,0.04124 4.31599,-0.64506 6.45499,-0.57824c0.89246,0.02788 3.53743,0.68604 4.52747,0.78525c0.62778,0.06291 1.27802,0.04693 1.88844,0.07718c-0.14113,-0.21053 -0.23877,-0.45502 -0.27817,-0.72248c-0.14159,-0.96129 0.52289,-1.85535 1.48418,-1.99694c0.20672,-0.03045 0.41032,-0.02362 0.60401,0.01542l2.1508,0.3814l-0.00274,0.01542l0.05349,-0.00565c3.55397,0.86204 14.20089,1.4465 14.18754,1.70711c-0.02975,0.58116 -0.24189,0.96026 -0.51251,1.20738c-0.03293,0.11938 -0.06701,0.23848 -0.10242,0.35722z"/><path d="M190.44795,126.60457c-2.93389,2.22317 -11.67461,8.23985 -16.09097,10.05621c-8.27102,3.40171 -24.49668,6.18976 -24.49668,6.18976c0,0 16.04592,-4.01945 24.21271,-9.04049c3.60475,-2.21624 10.46992,-7.74197 14.19685,-11.2807c3.72693,-3.53872 12.7568,-18.30938 15.58876,-15.77249c2.9684,2.65911 -4.98214,13.46096 -13.41067,19.84771z"/></g><path d="M244.19451,110.4332c4.65539,-0.35249 11.52375,-0.19989 14.21627,8.39761c0.45241,1.44458 7.50154,14.76003 7.35546,16.10525c-0.1011,0.93098 -1.59725,2.81347 -3.08762,4.11479c-3.67654,3.21019 -11.39554,3.547 -12.73097,3.64811c-7.31437,0.55382 -12.96921,0.0023 -13.42379,-12.00359c-0.45458,-12.00589 0.35629,-19.70835 7.67066,-20.26217z" fill="#dadada" stroke="#3e3e3e"/><g data-paper-data="{&quot;index&quot;:null}" fill="#dadada" stroke="#3e3e3e"><path d="M189.71054,246.10169l12.79351,-85.09965l11.537,3.19837v81.90128z"/><g><path d="M190.03868,243.2864c2.22629,-7.92217 8.8501,-8.00417 15.92157,-6.01694c7.07146,1.98723 11.91277,5.29117 9.68648,13.21334c-2.22629,7.92217 -10.41292,15.04388 -17.48439,13.05665c-7.07146,-1.98723 -10.34995,-12.33088 -8.12366,-20.25305z"/><path d="M192.27648,284.11436l8.22446,-29.26633l6.94274,-1.7884l-3.99977,34.19301z"/><path d="M181.91605,279.98606l12.88056,-27.53636l7.1413,-0.63393l-9.51456,33.08524z"/><path d="M176.15116,277.82683l14.49,-26.72452l7.16632,-0.20955l-11.4588,32.46315z"/><path d="M170.41998,273.77516l18.28073,-24.2894l7.11858,0.85193l-16.131,30.41301z"/><path d="M200.43105,287.51777l5.79955,-33.93413l6.15722,3.67268l-0.35758,30.3979z" data-paper-data="{&quot;index&quot;:null}"/></g></g><path d="M211.30316,126.09987c5.19681,0.55382 5.77293,8.25628 5.44995,20.26217c-0.32298,12.00589 -4.3407,12.55741 -9.53751,12.00359c-0.94881,-0.10111 -6.43311,-0.43792 -9.04527,-3.64811c-1.0589,-1.30132 -2.1219,-3.18381 -2.19373,-4.1148c-0.10379,-1.34522 4.90457,-14.66066 5.226,-16.10524c1.91301,-8.5975 6.79294,-8.7501 10.10056,-8.39761z" fill="#dadada" stroke="#3e3e3e"/><path d="M211.80124,141.99987c5.19681,0.55382 5.669,12.11964 5.18225,30.21317c-0.48674,18.09353 -4.51779,19.14038 -9.7146,18.58657c-0.94881,-0.10111 -6.43648,-0.31271 -9.00876,-5.00524c-1.04273,-1.90222 -2.08167,-4.67922 -2.14094,-6.07704c-0.08564,-2.01978 5.11109,-22.33745 5.45263,-24.52973c2.03273,-13.04751 6.9218,-13.54021 10.22942,-13.18772z" fill="#dadada" stroke="#3e3e3e"/><path d="M210.45328,178.34101c5.19681,0.55381 5.77293,8.25628 5.44995,20.26217c-0.32298,12.00589 -4.3407,12.55741 -9.53751,12.00359c-0.94881,-0.10111 -6.43311,-0.43792 -9.04527,-3.64811c-1.0589,-1.30132 -2.1219,-3.18381 -2.19373,-4.11479c-0.10379,-1.34522 4.90457,-14.66067 5.226,-16.10525c1.91301,-8.5975 6.79294,-8.7501 10.10056,-8.39761z" fill="#dadada" stroke="#3e3e3e"/><path d="M210.61843,199.73353c5.19681,0.55381 5.77293,8.25628 5.44995,20.26217c-0.32298,12.00589 -4.3407,12.5574 -9.53751,12.00359c-0.94881,-0.10111 -6.43311,-0.43792 -9.04527,-3.64811c-1.0589,-1.30132 -2.1219,-3.18381 -2.19373,-4.11479c-0.10379,-1.34522 4.90457,-14.66067 5.226,-16.10525c1.91301,-8.5975 6.79294,-8.7501 10.10056,-8.39761z" fill="#dadada" stroke="#3e3e3e"/><g fill="#dadada" stroke="#3e3e3e"><path d="M194.48559,343.01633l12.79351,-118.59966l11.537,3.19838v115.40128z"/><path d="M184.83335,343.64458c0,-10.03071 7.62008,-18.16221 17.01993,-18.16221c4.74072,0 12.68403,-0.9016 15.77014,2.43554c3.03299,3.27971 1.24979,10.75485 1.24979,15.72667c0,0.95291 -34.03986,1.71153 -34.03986,0z"/></g><path d="M242.69451,128.4332c4.65539,-0.35249 11.52375,-0.19989 14.21627,8.39761c0.45241,1.44458 7.50154,14.76003 7.35546,16.10525c-0.1011,0.93098 -1.59725,2.81347 -3.08762,4.11479c-3.67654,3.21019 -11.39554,3.547 -12.73097,3.64811c-7.31437,0.55382 -12.96921,0.0023 -13.42379,-12.00359c-0.45458,-12.00589 0.35629,-19.70835 7.67066,-20.26217z" fill="#dadada" stroke="#3e3e3e"/><path d="M241.99348,144.33319c4.65539,-0.35248 11.53663,0.14021 14.39764,13.18772c0.48072,2.19229 7.79498,22.50995 7.67444,24.52973c-0.08342,1.39783 -1.5457,4.17483 -3.01332,6.07705c-3.62042,4.69254 -11.34416,4.90413 -12.67959,5.00524c-7.31437,0.55382 -12.98796,-0.49303 -13.67304,-18.58656c-0.68508,-18.09354 -0.02049,-29.65935 7.29388,-30.21317z" fill="#dadada" stroke="#3e3e3e"/><path d="M258.10697,189.07195c0.45241,1.44458 7.50154,14.76003 7.35546,16.10525c-0.1011,0.93098 -1.59725,2.81347 -3.08762,4.11479c-3.67655,3.21019 -11.39555,3.547 -12.73098,3.64811c-7.31437,0.55382 -12.96921,0.0023 -13.42379,-12.00359c-0.45458,-12.00589 0.35629,-19.70835 7.67066,-20.26217c4.65539,-0.35249 11.52376,-0.19989 14.21627,8.39761z" fill="#dadada" stroke="#3e3e3e"/><path d="M257.87453,210.46448c0.45241,1.44458 7.50154,14.76003 7.35546,16.10525c-0.1011,0.93098 -1.59725,2.81347 -3.08762,4.11479c-3.67655,3.21019 -11.39555,3.547 -12.73098,3.64811c-7.31437,0.55382 -12.96921,0.0023 -13.42379,-12.00359c-0.45458,-12.00589 0.35629,-19.70835 7.67066,-20.26217c4.65539,-0.35249 11.52376,-0.19989 14.21627,8.39761z" fill="#dadada" stroke="#3e3e3e"/><path d="M197.81998,232l7.41678,-104h37.86461l5.85535,109.5c0,0 -17.96597,0.90355 -25.99265,0.04024c-8.92369,-0.95979 -25.14409,-5.54024 -25.14409,-5.54024z" fill="#dadada" stroke="#3e3e3e"/><path d="M231.52176,127.66667c-0.07105,0.29411 4.56884,14.01287 4.80853,25.50565c0.11886,5.69941 -4.11204,12.10817 -4.08028,13.57769c0.0989,4.57516 6.3606,28.37018 6.82403,33.69642c0.68273,7.84677 -5.39391,11.26452 -3.82403,18.47025c1.4062,6.45445 -4.42032,12.90475 -2.22346,18.98294c-4.58866,0.04809 -9.36445,-0.0154 -12.56247,-0.35936c-3.48963,-0.37533 -8.09508,-1.30433 -12.41002,-2.29658c-0.24135,-6.99553 0.26762,-11.64228 -0.30405,-18.20434c-0.83498,-9.58471 -1.28394,-9.69258 -1,-19.83321c0.08308,-2.96715 1.56932,-13.1396 2.78476,-15.7422c2.12724,-4.55501 3.95292,-10.20037 5.20207,-15.05163c1.07328,-4.16826 -1.63955,-11.35482 -2.11963,-18.90507c-0.55835,-8.78129 0.96303,-17.81944 0.30932,-19.50722z" fill="#be6a6a" stroke="#753030"/><g data-paper-data="{&quot;index&quot;:null}" fill="#dadada" stroke="#3e3e3e"><path d="M234.37224,343.53502v-115.40128l11.53701,-3.19837l12.7935,118.59965z"/><path d="M223.69921,344.43482c0,-10.03071 7.62008,-18.16221 17.01993,-18.16221c4.74072,0 12.68403,-0.9016 15.77013,2.43554c3.03299,3.27971 1.2498,10.75485 1.2498,15.72667c0,0.95291 -34.03987,1.71153 -34.03987,0z" data-paper-data="{&quot;index&quot;:null}"/></g><g fill="#dadada" stroke="#3e3e3e"><path d="M247.07223,246.93502v-81.90128l11.53701,-3.19837l12.7935,85.09965z"/><g><path d="M262.95095,264.37279c-7.07146,1.98723 -15.25809,-5.13448 -17.48438,-13.05665c-2.2263,-7.92217 2.61501,-11.22611 9.68647,-13.21334c7.07146,-1.98723 13.69528,-1.90523 15.92157,6.01694c2.2263,7.92216 -1.0522,18.26582 -8.12366,20.25305z"/><path d="M257.66938,288.08598l-3.99977,-34.19301l6.94274,1.78839l8.22445,29.26634z"/><path d="M268.68994,285.73434l-9.51456,-33.08524l7.1413,0.63393l12.88056,27.53637z"/><path d="M274.76462,284.18924l-11.4588,-32.46314l7.16632,0.20955l14.49,26.72452z"/><path d="M281.42497,281.58403l-16.13099,-30.41301l7.11858,-0.85193l18.28074,24.2894z"/><path d="M249.08304,288.48756l-0.35758,-30.3979l6.15722,-3.67268l5.79955,33.93413z" data-paper-data="{&quot;index&quot;:null}"/></g></g><g><g data-paper-data="{&quot;index&quot;:null}" fill="#f3f3f3" stroke="#c7c7c7"><path d="M235.29432,127.52989c-0.57132,-0.47215 6.71794,-4.09086 7.03422,-3.44508c1.90285,3.88528 -0.57101,11.36818 -2.51345,12.31952c-1.05194,0.5152 -1.15087,-6.08947 -4.52077,-8.87443z"/><path d="M232.52684,127.38701c-0.20801,-0.52728 6.00987,-0.25605 5.98296,0.29322c-0.16196,3.30463 -4.58396,7.40037 -6.23611,7.31939c-0.89473,-0.04385 1.48011,-4.50247 0.25315,-7.61262z"/></g><g fill="#f3f3f3" stroke="#c7c7c7"><path d="M212.90949,126.7799c-3.3699,2.78496 -3.46883,9.38963 -4.52077,8.87443c-1.94245,-0.95134 -4.4163,-8.43424 -2.51345,-12.31952c0.31628,-0.64578 7.60554,2.97293 7.03422,3.44508z"/><path d="M215.93012,134.24963c-1.65215,0.08097 -6.07415,-4.01477 -6.23611,-7.31939c-0.02691,-0.54927 6.19097,-0.82051 5.98296,-0.29323c-1.22696,3.11014 1.14788,7.56877 0.25315,7.61262z"/></g><path d="M190.31085,134.1225c0,0 6.99308,-31.15851 8.46514,-37.71746c0.35422,-1.57827 1.34458,-3.86406 9.14304,-4.72862c3.63843,-0.40336 14.44337,0.03144 17.03326,0.03144c5.77554,0 15.89452,-0.78265 20.8536,0.94277c1.65246,0.57494 2.73199,3.38122 2.88698,3.98449c1.71815,6.6876 9.71797,37.82535 9.71797,37.82535c0,0 -10.22361,3.00331 -12.38057,1.45679c-1.19389,-0.85601 -4.09512,-9.32746 -4.09512,-9.32746c0,0 -11.54269,2.29214 -18.99937,2.08916c-7.45668,-0.20299 -17.16725,-3.07368 -17.16725,-3.07368c0,0 -2.84609,8.21036 -4.70832,10.02172c-0.70432,0.68507 -10.74937,-1.50449 -10.74937,-1.50449z" fill="#dadada" stroke="#3e3e3e"/></g><path d="M212.04559,122.20845c-1.65146,0 -2.99024,-3.17878 -2.99024,-7.1c0,-3.92122 1.33877,-7.1 2.99024,-7.1c1.65147,0 2.99025,3.17878 2.99025,7.1c0,3.92122 -1.33878,7.1 -2.99025,7.1z" fill="#000000" stroke="none"/><path d="M230.24559,123.00845c-1.65147,0 -2.99025,-3.17878 -2.99025,-7.1c0,-3.92122 1.33878,-7.1 2.99025,-7.1c1.65146,0 2.99024,3.17878 2.99024,7.1c0,3.92122 -1.33877,7.1 -2.99024,7.1z" fill="#000000" stroke="none"/><g fill="#dadada" stroke="#3e3e3e"><path d="M249.20925,85.5374c-0.20505,0.30374 -0.54918,0.56885 -1.1198,0.68298c-0.25589,0.05118 -2.38564,-10.39691 -3.75638,-13.78732l-0.0022,-0.05374l-0.01486,0.00495l-0.69075,-2.07225c-0.06685,-0.18593 -0.10327,-0.38636 -0.10327,-0.59531c0,-0.97166 0.78769,-1.75934 1.75934,-1.75934c0.27034,0 0.52644,0.06097 0.7553,0.16992c-0.11888,-0.5995 -0.19783,-1.24514 -0.35155,-1.85704c-0.24242,-0.96501 -1.279,-3.48584 -1.43663,-4.36471c-0.37781,-2.10643 -0.00992,-4.3183 -0.36859,-6.47035l0.05174,-0.14511h-0.05774v-1.75935c0,-0.23613 0.04653,-0.4614 0.1309,-0.66714c-0.21249,-0.43769 -0.39907,-0.8948 -0.62664,-1.31797c-1.60567,-2.9857 -2.97353,-6.16048 -2.67108,-9.62656c0.0883,-1.01192 -0.30265,-2.40112 0.5153,-3.00339c0.61345,-0.4517 1.38352,-0.50102 2.18241,-0.4763c-0.76384,-1.01151 -0.92867,-2.30394 -1.54045,-4.02394c-0.53881,-1.51487 -1.45624,-2.87379 -2.02713,-4.37686c-0.44253,-1.16514 -1.62518,-2.43757 -1.10742,-3.57129c0.71261,-1.5604 2.40188,-1.88838 4.18129,-1.84291c-1.42472,-2.01475 -2.43521,-4.6557 -2.84014,-6.50132c-0.22054,-1.00518 -0.79319,-2.23443 -0.20707,-3.08029c0.72565,-1.04721 2.19038,-1.68357 3.46276,-1.61813c1.34373,0.06911 2.33457,1.33903 3.51909,1.97723c2.0641,1.11209 4.09741,2.04698 6.25579,2.84631c0.10905,-0.27385 0.24379,-0.58234 0.40679,-0.92948c1.13268,-2.41236 4.02125,-3.85434 6.65129,-3.13834c1.4154,0.38533 2.48422,1.58195 3.58785,2.5483c2.53375,2.21858 3.33382,5.65562 4.87294,8.47573c1.33684,2.44948 2.41921,5.08035 3.01228,7.90186c0.47966,2.28196 0.6288,4.62707 0.73996,6.95625c0.02449,0.51301 -0.35928,1.07499 -0.13124,1.53518c0.351,0.70833 1.37147,0.93028 1.70753,1.64581c1.32441,2.81996 0.56972,7.41417 0.02562,10.31686c-1.03573,1.29169 -2.51343,4.11673 -4.06673,4.77186c-0.10409,0.0439 0.21286,-0.09329 0.32583,-0.09323c0.65172,0.00035 1.4444,-0.31321 1.9529,0.09444c2.80059,2.24514 2.0589,4.30663 1.05119,7.31962c-0.94588,2.82813 -3.09831,6.24668 -4.71395,8.73982c-0.74479,1.14931 -2.60636,4.08697 -4.04708,4.92971c-2.59919,1.52036 -5.65852,1.6009 -8.38322,2.60124c-2.23236,0.81958 -4.38172,2.45189 -6.54566,3.46025c-0.11231,0.05233 -0.22517,0.10341 -0.33849,0.15339z"/><path d="M250.98338,84.72716c-5.09032,9.26927 -14.61826,18.70905 -17.68156,16.15984c-2.9225,-2.43204 10.3746,-13.51799 13.33244,-17.72082c2.95784,-4.20283 7.42415,-11.79995 9.09143,-15.68918c3.77733,-8.81131 5.41557,-25.27168 5.41557,-25.27168c0,0 -0.39379,16.45875 -2.55389,25.13719c-1.15339,4.6339 -5.83211,14.1581 -7.604,17.38465z"/></g><g data-paper-data="{&quot;index&quot;:null}" fill="#dadada" stroke="#3e3e3e"><path d="M194.02438,85.38401c-2.16395,-1.00835 -4.3133,-2.64066 -6.54567,-3.46025c-2.7247,-1.00034 -5.78403,-1.08087 -8.38322,-2.60124c-1.44072,-0.84274 -3.30229,-3.7804 -4.04708,-4.92971c-1.61563,-2.49313 -3.76806,-5.91169 -4.71394,-8.73982c-1.00771,-3.01299 -1.7494,-5.07448 1.05119,-7.31962c0.5085,-0.40765 1.30118,-0.09409 1.9529,-0.09444c0.11297,-0.00006 0.42992,0.13713 0.32583,0.09323c-1.5533,-0.65513 -3.03101,-3.48016 -4.06673,-4.77186c-0.54409,-2.90269 -1.29879,-7.49689 0.02562,-10.31686c0.33605,-0.71554 1.35653,-0.93749 1.70753,-1.64581c0.22804,-0.46019 -0.15572,-1.02217 -0.13124,-1.53518c0.11116,-2.32918 0.2603,-4.67428 0.73996,-6.95625c0.59306,-2.82151 1.67543,-5.45238 3.01227,-7.90186c1.53912,-2.82011 2.33919,-6.25715 4.87295,-8.47573c1.10363,-0.96635 2.17244,-2.16297 3.58784,-2.5483c2.63004,-0.716 5.51861,0.72598 6.65129,3.13834c0.163,0.34715 0.29774,0.65564 0.40679,0.92948c2.15838,-0.79932 4.19169,-1.73422 6.25579,-2.84631c1.18452,-0.63819 2.17536,-1.90812 3.51909,-1.97723c1.27238,-0.06544 2.73711,0.57091 3.46276,1.61813c0.58612,0.84586 0.01347,2.07511 -0.20707,3.08029c-0.40493,1.84562 -1.41542,4.48657 -2.84015,6.50132c1.7794,-0.04547 3.46867,0.28251 4.18129,1.84291c0.51775,1.13372 -0.66488,2.40615 -1.10742,3.57129c-0.57089,1.50307 -1.48832,2.862 -2.02713,4.37686c-0.61177,1.72 -0.77661,3.01243 -1.54045,4.02394c0.79889,-0.02472 1.56895,0.0246 2.1824,0.4763c0.81795,0.60227 0.427,1.99147 0.5153,3.00339c0.30245,3.46608 -1.06541,6.64086 -2.67108,9.62656c-0.22758,0.42318 -0.41415,0.88029 -0.62664,1.31797c0.08437,0.20574 0.1309,0.43101 0.1309,0.66714v1.75935h-0.05774l0.05175,0.14511c-0.35868,2.15205 0.00922,4.36391 -0.36859,6.47035c-0.15763,0.87886 -1.19421,3.39969 -1.43663,4.36471c-0.15372,0.6119 -0.23267,1.25754 -0.35155,1.85704c0.22886,-0.10895 0.48496,-0.16992 0.7553,-0.16992c0.97166,0 1.75934,0.78768 1.75934,1.75934c0,0.20894 -0.03643,0.40938 -0.10327,0.59531l-0.69075,2.07225l-0.01486,-0.00495l-0.0022,0.05374c-1.37074,3.39041 -3.50049,13.8385 -3.75638,13.78732c-0.57063,-0.11413 -0.91476,-0.37924 -1.11981,-0.68298c-0.11332,-0.04997 -0.22617,-0.10105 -0.33848,-0.15339z"/><path d="M192.58875,84.72716c-1.77189,-3.22655 -6.45061,-12.75075 -7.604,-17.38465c-2.1601,-8.67844 -2.55389,-25.13719 -2.55389,-25.13719c0,0 1.63824,16.46037 5.41557,25.27168c1.66728,3.88923 6.1336,11.48635 9.09144,15.68918c2.95784,4.20283 16.25493,15.28878 13.33244,17.72082c-3.0633,2.54921 -12.59124,-6.89057 -17.68156,-16.15984z"/></g><g data-paper-data="{&quot;index&quot;:null}" fill="#dadada" stroke="#3e3e3e"><path d="M259.22132,131.23132c-0.27062,-0.24712 -0.48275,-0.62622 -0.5125,-1.20738c-0.01335,-0.26062 10.63357,-0.84507 14.18754,-1.70711l0.05349,0.00565l-0.00274,-0.01542l2.1508,-0.38139c0.19369,-0.03903 0.39729,-0.04587 0.604,-0.01542c0.96129,0.1416 1.62578,1.03566 1.48418,1.99694c-0.0394,0.26746 -0.13704,0.51194 -0.27817,0.72248c0.61043,-0.03025 1.26067,-0.01427 1.88845,-0.07718c0.99003,-0.09921 3.63501,-0.75737 4.52746,-0.78525c2.139,-0.06682 4.27365,0.61947 6.455,0.57824l0.13602,0.07233l0.00842,-0.05712l1.74057,0.25638c0.23361,0.03441 0.44969,0.11327 0.64094,0.22672c0.46398,-0.14644 0.9434,-0.26441 1.39522,-0.42789c3.18782,-1.15344 6.52804,-2.04405 9.91304,-1.23973c0.98825,0.23482 2.41959,0.05049 2.89624,0.94747c0.35748,0.67273 0.29405,1.44176 0.15317,2.22852c1.11203,-0.60828 2.41467,-0.58302 4.20547,-0.93761c1.57721,-0.31231 3.05532,-1.02192 4.62554,-1.36767c1.21719,-0.26802 2.64838,-1.25261 3.69455,-0.57517c1.43989,0.9324 1.51822,2.65143 1.21392,4.40521c2.20085,-1.11591 4.96087,-1.73076 6.8458,-1.86241c1.02658,-0.0717 2.32617,-0.45911 3.07758,0.24401c0.93029,0.87051 1.3464,2.41235 1.09624,3.6616c-0.26419,1.31931 -1.66495,2.11451 -2.46894,3.19339c-1.401,1.88 -2.62223,3.75537 -3.72755,5.77423c0.25504,0.1478 0.54059,0.32604 0.86028,0.53789c2.22156,1.47213 3.2272,4.54 2.13558,7.03762c-0.58747,1.34414 -1.92708,2.22717 -3.04393,3.1782c-2.56412,2.1834 -6.08107,2.47407 -9.09536,3.58579c-2.61815,0.96562 -5.37867,1.65305 -8.25648,1.82862c-2.3275,0.142 -4.6693,-0.05219 -6.98981,-0.28164c-0.5111,-0.05053 -1.01116,-0.51209 -1.49967,-0.35355c-0.75191,0.24403 -1.1202,1.22127 -1.87707,1.44946c-2.98287,0.89933 -7.41805,-0.5168 -10.21046,-1.47808c-1.12698,-1.2129 -3.70651,-3.08651 -4.12829,-4.7187c-0.02826,-0.10937 0.06127,0.22418 0.04475,0.33594c-0.09532,0.64472 0.09938,1.47463 -0.37802,1.9183c-2.62929,2.44352 -4.56069,1.40933 -7.39466,-0.02669c-2.6601,-1.34792 -5.7285,-3.97554 -7.95958,-5.93724c-1.0285,-0.90432 -3.66353,-3.17412 -4.28732,-4.72227c-1.12536,-2.793 -0.75922,-5.8314 -1.35182,-8.67279c-0.48552,-2.32797 -1.78719,-4.69225 -2.46944,-6.98004c-0.03541,-0.11874 -0.0695,-0.23784 -0.10242,-0.35722z"/><path d="M246.35371,113.25686c2.83196,-2.53688 11.86184,12.23377 15.58877,15.77249c3.72693,3.53872 10.59211,9.06446 14.19685,11.2807c8.16679,5.02104 24.21271,9.04049 24.21271,9.04049c0,0 -16.22566,-2.78805 -24.49668,-6.18976c-4.41636,-1.81636 -13.15708,-7.83305 -16.09097,-10.05621c-8.42854,-6.38675 -16.37907,-17.1886 -13.41067,-19.84771z"/></g><g data-paper-data="{&quot;index&quot;:null}" fill="#dadada" stroke="#3e3e3e"><path d="M265.08108,105.04247c-0.35555,0.0888 -0.78871,0.05588 -1.28936,-0.24074c-0.22451,-0.13302 5.17681,-9.32671 6.42411,-12.76445l0.0343,-0.04144l-0.01436,-0.00625l0.87174,-2.00286c0.07459,-0.18296 0.1815,-0.35637 0.32119,-0.51176c0.64961,-0.72259 1.76198,-0.78174 2.48458,-0.13213c0.20105,0.18073 0.35073,0.3973 0.44809,0.63132c0.31239,-0.52531 0.68532,-1.05822 0.9801,-1.61604c0.46488,-0.87972 1.37933,-3.44737 1.84967,-4.20633c1.1273,-1.81906 2.87965,-3.21798 4.05169,-5.05818l0.13549,-0.07332l-0.04294,-0.03861l1.17622,-1.30836c0.15787,-0.17561 0.34307,-0.31202 0.54336,-0.40861c0.13459,-0.46756 0.30146,-0.93223 0.41514,-1.39907c0.80203,-3.29383 1.90732,-6.56928 4.44951,-8.94466c0.74219,-0.69349 1.38022,-1.98796 2.39114,-1.889c0.75819,0.07421 1.36382,0.55237 1.9414,1.10486c0.10821,-1.2629 0.84969,-2.33422 1.54466,-4.02233c0.61208,-1.48677 0.83834,-3.11071 1.41868,-4.61015c0.44986,-1.16233 0.42107,-2.89925 1.56406,-3.39621c1.57316,-0.68398 3.04869,0.20147 4.34156,1.42492c0.28746,-2.45079 1.30162,-5.09034 2.23439,-6.73358c0.50801,-0.89495 0.90398,-2.19195 1.90535,-2.42913c1.23976,-0.29364 2.75447,0.21238 3.65694,1.11171c0.95308,0.94976 0.84091,2.55658 1.29512,3.8231c0.79149,2.20698 1.67856,4.26161 2.74927,6.29904c0.26418,-0.13074 0.57062,-0.27008 0.92392,-0.41927c2.45513,-1.03672 5.5673,-0.17789 7.04447,2.1129c0.79496,1.23283 0.78979,2.83727 0.96447,4.29375c0.40101,3.34382 -1.30186,6.43471 -2.04268,9.56091c-0.64346,2.71533 -1.59743,5.39544 -3.04272,7.89019c-1.16892,2.01769 -2.62583,3.86136 -4.10036,5.6678c-0.32477,0.39787 -0.98587,0.55924 -1.12395,1.05392c-0.21253,0.76142 0.39798,1.60871 0.16951,2.3655c-0.9004,2.98255 -4.53311,5.89453 -6.87834,7.68939c-1.6338,0.26815 -4.6214,1.38108 -6.21453,0.8298c-0.10676,-0.03694 0.22066,0.07294 0.30463,0.14851c0.48444,0.43597 1.28355,0.73275 1.38916,1.37586c0.58169,3.54197 -1.3481,4.57917 -4.11184,6.1461c-2.59418,1.47079 -6.48035,2.57403 -9.34864,3.34794c-1.32225,0.35676 -4.67063,1.29682 -6.30545,0.96033c-2.94936,-0.60707 -5.27831,-2.5925 -7.97335,-3.67021c-2.20806,-0.88297 -4.89774,-1.10604 -7.18113,-1.80289c-0.11852,-0.03617 -0.23659,-0.07364 -0.35426,-0.11223z"/><path d="M242.98927,105.82238c-0.54739,-3.76247 16.75272,-3.11682 21.76218,-4.26481c5.00946,-1.148 13.40999,-3.81171 17.25005,-5.58931c8.69991,-4.02727 20.92288,-15.17297 20.92288,-15.17297c0,0 -11.29644,11.97647 -18.70484,16.98615c-3.95576,2.67494 -13.8026,6.62975 -17.27741,7.8446c-9.98251,3.49004 -23.37909,4.14008 -23.95285,0.19635z"/></g></g></g></svg>