<svg version="1.1" xmlns="http://www.w3.org/2000/svg" xmlns:xlink="http://www.w3.org/1999/xlink" width="217.17005" height="162.45925" viewBox="0,0,217.17005,162.45925"><g transform="translate(-117.51186,-81.48206)"><g data-paper-data="{&quot;isPaintingLayer&quot;:true}" fill-rule="nonzero" stroke-linecap="butt" stroke-linejoin="miter" stroke-miterlimit="10" stroke-dasharray="" stroke-dashoffset="0" style="mix-blend-mode: normal"><g fill="#dadada" stroke="#3e3e3e" stroke-width="2"><g data-paper-data="{&quot;index&quot;:null}"><path d="M196.58668,156.66628c-0.11684,-0.04108 -0.23332,-0.08329 -0.34933,-0.12679c-2.23537,-0.8382 -4.50439,-2.2996 -6.79339,-2.94429c-2.79383,-0.78688 -5.85024,-0.63086 -8.5591,-1.94591c-1.50152,-0.72894 -3.58444,-3.51402 -4.41578,-4.60236c-1.80339,-2.36089 -4.21346,-5.60296 -5.37497,-8.34957c-1.23744,-2.92614 -2.13616,-4.92418 0.48264,-7.37895c0.47549,-0.44571 1.29003,-0.19432 1.93977,-0.24501c0.11263,-0.00878 0.43923,0.10352 0.33206,0.06779c-1.59927,-0.53319 -3.29077,-3.23565 -4.42318,-4.44347c-0.76669,-2.85199 -1.87401,-7.37417 -0.77139,-10.28801c0.27979,-0.73935 1.28007,-1.03947 1.5753,-1.77279c0.19181,-0.47643 -0.23422,-1.00709 -0.24943,-1.52046c-0.06909,-2.3308 -0.10155,-4.68043 0.20041,-6.99262c0.37335,-2.85889 1.24927,-5.56551 2.3929,-8.11093c1.31668,-2.93058 1.84887,-6.41915 4.20367,-8.82682c1.02569,-1.04872 1.99888,-2.32432 3.38028,-2.81783c2.56688,-0.91702 5.5582,0.29753 6.87384,2.61519c0.18933,0.33351 0.34749,0.63067 0.47737,0.89528c2.09018,-0.96367 4.04521,-2.05283 6.01724,-3.32104c1.13169,-0.72779 2.02147,-2.07045 3.35584,-2.24316c1.26352,-0.16353 2.77304,0.35779 3.57741,1.34582c0.64971,0.79806 0.17372,2.06787 0.03149,3.08708c-0.26116,1.87139 -1.06463,4.5825 -2.32946,6.70128c1.77058,-0.18278 3.48014,0.01373 4.31116,1.51442c0.60378,1.09034 -0.47704,2.45032 -0.82825,3.64616c-0.45308,1.54268 -1.2628,2.96841 -1.68299,4.52037c-0.47709,1.76212 -0.54159,3.06342 -1.22501,4.13091c0.79459,-0.08635 1.56617,-0.09667 2.21268,0.30629c0.86203,0.53729 0.57956,1.95253 0.74576,2.95461c0.56929,3.43236 -0.54926,6.70332 -1.9195,9.80412c-0.1942,0.43949 -0.34491,0.90965 -0.52296,1.36244c0.10001,0.19861 0.1638,0.41961 0.18204,0.65503l0.1359,1.75409l-0.05757,0.00446l0.06279,0.14068c-0.19136,2.17332 0.34628,4.35017 0.13232,6.47949c-0.08927,0.88842 -0.92803,3.4818 -1.09518,4.46265c-0.106,0.62195 -0.13484,1.27176 -0.20705,1.87865c0.21976,-0.12631 0.47038,-0.20687 0.73991,-0.22776c0.96875,-0.07505 1.81493,0.64943 1.88998,1.61818c0.01614,0.20833 -0.00468,0.41097 -0.05697,0.60151l-0.52862,2.11942l-0.0152,-0.00378l0.00196,0.05375c-1.10475,3.48617 -2.42107,14.06754 -2.68015,14.03628c-0.57773,-0.06971 -0.94132,-0.30745 -1.16922,-0.59444z"/><path d="M194.7553,155.99546c-2.01583,-3.08004 -7.41627,-12.21438 -8.92416,-16.74534c-2.82402,-8.48565 -4.48799,-24.86481 -4.48799,-24.86481c0,0 2.90483,16.28465 7.35151,24.77785c1.96273,3.74882 7.00253,10.97824 10.27618,14.94003c3.27365,3.96179 17.38736,13.98748 14.66146,16.638c-2.85724,2.77822 -13.08588,-5.89737 -18.877,-14.74574z"/></g><g data-paper-data="{&quot;index&quot;:null}"><path d="M190.13417,202.99704c-0.0236,0.12157 -0.04839,0.24295 -0.07452,0.36407c-0.50349,2.33365 -1.61864,4.79142 -1.92289,7.14993c-0.37134,2.87867 0.2284,5.87972 -0.67785,8.7513c-0.50234,1.59171 -2.95416,4.05827 -3.90974,5.03933c-2.07288,2.12818 -4.92914,4.98496 -7.47717,6.53434c-2.71457,1.65064 -4.56032,2.83093 -7.37051,0.59781c-0.51024,-0.40546 -0.38023,-1.24793 -0.52507,-1.88336c-0.0251,-0.11015 0.03839,-0.44962 0.01866,-0.33839c-0.29444,1.6599 -2.72153,3.72716 -3.75145,5.02349c-2.70981,1.17411 -7.02236,2.92861 -10.06578,2.26237c-0.77223,-0.16905 -1.21491,-1.11491 -1.98342,-1.30013c-0.49929,-0.12033 -0.96221,0.37848 -1.46788,0.46833c-2.29585,0.40802 -4.61566,0.78251 -6.94717,0.82073c-2.88278,0.04725 -5.68815,-0.42489 -8.37306,-1.18538c-3.09116,-0.87556 -6.62006,-0.89369 -9.34517,-2.8725c-1.18698,-0.86192 -2.59079,-1.63883 -3.28034,-2.93357c-1.28129,-2.40583 -0.51562,-5.54222 1.58558,-7.18156c0.30237,-0.23591 0.5733,-0.43568 0.81616,-0.60273c-1.25796,-1.92745 -2.62041,-3.70289 -4.16245,-5.46905c-0.88492,-1.01355 -2.34293,-1.69817 -2.70824,-2.99313c-0.34591,-1.22619 -0.05015,-2.79556 0.81012,-3.73533c0.69485,-0.75906 2.02049,-0.4732 3.04954,-0.48101c1.88947,-0.01434 4.68874,0.38547 6.96921,1.32804c-0.43886,-1.72503 -0.49356,-3.44498 0.87001,-4.48582c0.99071,-0.75623 2.49369,0.11487 3.72794,0.28806c1.59223,0.22342 3.12074,0.81674 4.71737,1.00629c1.81284,0.2152 3.10963,0.08939 4.26533,0.60995c-0.20123,-0.77353 -0.32387,-1.53536 -0.01943,-2.23369c0.40594,-0.93112 1.84724,-0.85791 2.8144,-1.16836c3.31276,-1.06339 6.71179,-0.43346 9.97919,0.47029c0.4631,0.12809 0.9502,0.20867 1.4241,0.31884c0.18192,-0.12788 0.39126,-0.2232 0.62151,-0.27555l1.71557,-0.39006l0.01281,0.0563l0.13003,-0.08262c2.17801,-0.12739 4.25328,-0.97652 6.39104,-1.07513c0.89193,-0.04114 3.57986,0.41074 4.57459,0.43318c0.63076,0.01423 1.27783,-0.05193 1.88877,-0.06893c-0.15697,-0.19901 -0.2732,-0.43522 -0.33315,-0.69884c-0.21543,-0.94747 0.37801,-1.89019 1.32549,-2.10562c0.20374,-0.04632 0.40726,-0.05524 0.60339,-0.03128l2.17383,0.21411l-0.00154,0.01558l0.05289,-0.00976c3.60994,0.58494 14.2702,0.34521 14.27702,0.60609c0.01523,0.58172 -0.16698,0.97608 -0.4177,1.24336z"/><path d="M201.5749,184.0823c3.16493,2.42187 -3.92745,13.80559 -11.83746,20.82432c-2.7534,2.44314 -11.00323,9.11704 -15.26609,11.26912c-7.98354,4.03045 -23.94536,8.06351 -23.94536,8.06351c0,0 15.6875,-5.24691 23.44203,-10.88379c3.42278,-2.48807 9.84061,-8.52759 13.28305,-12.34363c3.44244,-3.81603 11.30438,-19.24007 14.32384,-16.92953z"/></g><g data-paper-data="{&quot;index&quot;:null}"><path d="M182.26896,177.33909c-0.11434,0.04756 -0.22916,0.09404 -0.34453,0.13926c-2.22274,0.87115 -4.88716,1.30131 -7.02041,2.35221c-2.60374,1.28267 -4.77237,3.44207 -7.66602,4.27515c-1.60395,0.46177 -5.01494,-0.21684 -6.36079,-0.47039c-2.9195,-0.55004 -6.87928,-1.3498 -9.57932,-2.6158c-2.87652,-1.34876 -4.88066,-2.23379 -4.57431,-5.81011c0.05561,-0.64935 0.82941,-1.00696 1.27873,-1.47905c0.07788,-0.08183 0.39584,-0.21668 0.29225,-0.1716c-1.54578,0.6727 -4.61043,-0.20613 -6.26006,-0.34727c-2.47687,-1.60834 -6.32366,-4.23101 -7.45175,-7.1351c-0.28625,-0.73688 0.25699,-1.6288 -0.01372,-2.37153c-0.17588,-0.48254 -0.84747,-0.59235 -1.20201,-0.96395c-1.60967,-1.68714 -3.20463,-3.41276 -4.52591,-5.33413c-1.63368,-2.37565 -2.79182,-4.97407 -3.64311,-7.63158c-0.98009,-3.05964 -2.91663,-6.00975 -2.77511,-9.37455c0.06165,-1.46562 -0.06744,-3.06487 0.62991,-4.35543c1.29581,-2.39805 4.33234,-3.49471 6.86021,-2.65073c0.36377,0.12145 0.68005,0.2367 0.95354,0.34665c0.91013,-2.11405 1.63584,-4.23106 2.25448,-6.49259c0.35502,-1.29782 0.11907,-2.89117 0.99594,-3.91172c0.83031,-0.96635 2.3014,-1.58787 3.56014,-1.39087c1.0167,0.15912 1.51167,1.42166 2.08729,2.27469c1.05692,1.56628 2.27194,4.11961 2.74785,6.54086c1.1945,-1.31966 2.59723,-2.31644 4.21852,-1.75603c1.17797,0.40718 1.28343,2.14114 1.82173,3.26525c0.69443,1.45013 1.04545,3.05174 1.77055,4.48678c0.82329,1.62939 1.64531,2.64023 1.85075,3.891c0.53317,-0.59545 1.10007,-1.11897 1.85026,-1.25152c1.00026,-0.17675 1.73637,1.06457 2.52991,1.69865c2.71808,2.17191 4.07308,5.35219 5.12715,8.57423c0.1494,0.45666 0.35166,0.90706 0.52197,1.36282c0.20716,0.08083 0.40234,0.20253 0.5733,0.36542l1.27377,1.21359l-0.03982,0.04181l0.14074,0.06264c1.31069,1.74417 3.16586,3.00355 4.43031,4.7301c0.52756,0.72036 1.63762,3.2097 2.16907,4.05088c0.33699,0.53339 0.74996,1.03589 1.102,1.5355c0.07899,-0.24084 0.2115,-0.46832 0.39799,-0.66404c0.67026,-0.70349 1.78388,-0.73044 2.48737,-0.06019c0.15127,0.14414 0.27126,0.30878 0.35976,0.48543l1.02384,1.92953l-0.01383,0.00734l0.0374,0.03867c1.50912,3.33112 7.60447,12.08011 7.39091,12.23008c-0.47624,0.33441 -0.90556,0.40069 -1.26691,0.33962z"/><path d="M204.355,176.41016c-0.26741,3.97627 -13.67418,4.36299 -23.89645,1.65448c-3.55827,-0.94281 -13.68118,-4.12518 -17.83175,-6.48656c-7.77324,-4.42245 -19.96105,-15.49053 -19.96105,-15.49053c0,0 13.0474,10.16823 22.03241,13.51144c3.9659,1.47566 12.54709,3.48251 17.63026,4.24013c5.08317,0.75761 22.28171,-1.22246 22.02659,2.57104z"/></g></g><path d="M184.83335,201.83334c0,-16.56484 0,-37.84054 0,-48c0,-3.31404 1.84096,-5.33334 5,-5.33334c2.212,0 2.29085,0 8,0c2.16347,0 6.84652,6.66667 9.33333,6.66667c5.69934,0 8.11878,0 14.66667,0c3.54922,0 6.13619,-6.66667 9.66667,-6.66667c13.21762,0 10.64355,0 17.33333,0c3.35601,0 4.66667,1.53243 4.66667,5c0,10.40347 0,32.56274 0,48.66666c0,2.94909 -2.14335,4.66667 -4.66667,4.66667c-4.35532,0 -2.67066,0 -18.66667,0c-3.63211,0 -6.33369,6.66667 -10,6.66667c-5.5337,0 -8.3204,0 -13.33333,0c-2.82844,0 -6.51667,-6.66667 -9,-6.66667c-4.29267,0 -5.29443,0 -8,0c-3.15444,0 -5,-1.84709 -5,-5z" fill="#dadada" stroke="#3e3e3e" stroke-width="2"/><g fill="#dadada" stroke="#3e3e3e" stroke-width="2"><g><path d="M257.33776,152.27818c-0.29118,0.22253 -0.70186,0.36411 -1.27909,0.29039c-0.25886,-0.03306 1.05304,-10.61499 0.83457,-14.26548l0.01504,-0.05164l-0.01566,-0.00005l0.00585,-2.18433c-0.0041,-0.19754 0.02528,-0.39913 0.09188,-0.59718c0.30973,-0.92097 1.30743,-1.41646 2.22839,-1.10673c0.25624,0.08617 0.47954,0.2256 0.66173,0.40182c0.07842,-0.60612 0.20941,-1.24325 0.25876,-1.87223c0.07785,-0.99194 -0.10109,-3.71169 0.02966,-4.59497c0.31336,-2.11697 1.36714,-4.09618 1.71319,-6.2503l0.0953,-0.12105l-0.05473,-0.01841l0.56082,-1.66756c0.07527,-0.22381 0.19119,-0.4225 0.33674,-0.59061c-0.06188,-0.48259 -0.09301,-0.97534 -0.17382,-1.44897c-0.57015,-3.34178 -0.85463,-6.78697 0.53692,-9.97582c0.40627,-0.93099 0.47854,-2.37234 1.44581,-2.68245c0.72544,-0.23259 1.47106,-0.03386 2.22039,0.24424c-0.40155,-1.20223 -0.1458,-2.47978 -0.17738,-4.30506c-0.02781,-1.6076 -0.46419,-3.18808 -0.52616,-4.79472c-0.04803,-1.24542 -0.76337,-2.82847 0.08877,-3.738c1.17284,-1.25184 2.87854,-1.02421 4.55063,-0.41389c-0.70815,-2.3638 -0.82407,-5.1891 -0.61955,-7.06751c0.11138,-1.02304 -0.03954,-2.37071 0.78564,-2.9856c1.02161,-0.76126 2.61279,-0.89751 3.79793,-0.42989c1.2516,0.49384 1.78593,2.01337 2.70522,2.99586c1.60192,1.71205 3.23114,3.24632 5.02212,4.69199c0.19065,-0.2248 0.41671,-0.47425 0.68186,-0.75132c1.84258,-1.92544 5.04012,-2.3714 7.30471,-0.85438c1.21873,0.81642 1.85035,2.29132 2.58835,3.55906c1.69435,2.91052 1.35706,6.4233 1.91692,9.58691c0.48628,2.74784 0.67354,5.58649 0.33625,8.44986c-0.27278,2.31582 -0.87897,4.58613 -1.51609,6.82923c-0.14032,0.49406 -0.68321,0.90439 -0.61376,1.41326c0.1069,0.78327 1.00338,1.31893 1.09382,2.10426c0.3564,3.09503 -1.82342,7.20899 -3.26443,9.78681c-1.39345,0.89415 -3.6946,3.10076 -5.37571,3.22657c-0.11266,0.00843 0.2315,-0.02057 0.33856,0.0155c0.61761,0.20808 1.46889,0.16356 1.82091,0.71204c1.93881,3.02076 0.57866,4.73828 -1.33693,7.27286c-1.79806,2.37908 -4.92793,4.93315 -7.25402,6.78122c-1.0723,0.85193 -3.7732,3.04293 -5.4074,3.38244c-2.94824,0.6125 -5.87365,-0.28638 -8.77508,-0.20678c-2.37716,0.06521 -4.93473,0.92722 -7.30722,1.19317c-0.12313,0.0138 -0.24638,0.02624 -0.36972,0.03749z"/><path d="M259.27762,152.07575c-7.77954,7.16306 -19.81955,13.07316 -21.91043,9.68045c-1.99478,-3.23677 14.14251,-9.50566 18.28579,-12.54637c4.14327,-3.04071 10.79832,-8.81778 13.61839,-11.97263c6.38906,-7.14754 13.18892,-22.22698 13.18892,-22.22698c0,0 -5.61981,15.4746 -10.43365,23.01172c-2.57037,4.02449 -10.04104,11.5604 -12.74903,14.0538z"/></g><g data-paper-data="{&quot;index&quot;:null}"><path d="M252.26165,198.77989c-0.17773,-0.32049 -0.25794,-0.74743 -0.10088,-1.30776c0.07043,-0.25128 10.34822,2.58868 13.99158,2.90452l0.0489,0.0224l0.00232,-0.01549l2.16017,0.32412c0.19603,0.02475 0.39119,0.08317 0.5774,0.17792c0.866,0.44064 1.21082,1.49988 0.77019,2.36588c-0.12261,0.24095 -0.29308,0.44155 -0.49396,0.59612c0.58823,0.16592 1.19945,0.38834 1.81454,0.52883c0.97001,0.22156 3.6868,0.44088 4.54158,0.69894c2.04872,0.61852 3.85323,1.94947 5.93393,2.60574l0.10586,0.11191l0.02619,-0.05146l1.56804,0.79785c0.21046,0.10709 0.39013,0.25071 0.53524,0.41921c0.48645,0.00911 0.97847,0.05011 1.45883,0.03919c3.3892,-0.07709 6.83907,0.14353 9.79109,1.98493c0.86184,0.5376 2.27727,0.81914 2.44313,1.82127c0.12439,0.75159 -0.18088,1.46028 -0.56521,2.16109c1.24792,-0.22206 2.47455,0.21713 4.28496,0.45189c1.59449,0.20675 3.22168,0.00534 4.8202,0.17817c1.23913,0.13396 2.90952,-0.34304 3.68516,0.63254c1.06755,1.34276 0.59382,2.99708 -0.25366,4.56236c2.44176,-0.35613 5.25378,-0.05909 7.08235,0.41699c0.99588,0.25929 2.35117,0.30635 2.83925,1.21232c0.60426,1.12165 0.50718,2.7157 -0.12816,3.82003c-0.67097,1.16627 -2.25214,1.47346 -3.3581,2.23977c-1.9272,1.33533 -3.68253,2.72357 -5.37374,4.28477c0.19462,0.22139 0.40846,0.48135 0.64393,0.78406c1.63639,2.1035 1.61163,5.3319 -0.21921,7.35125c-0.9853,1.08675 -2.53651,1.49668 -3.89826,2.04208c-3.12636,1.25213 -6.55249,0.40654 -9.76391,0.49939c-2.78938,0.08066 -5.62502,-0.14775 -8.40866,-0.8987c-2.25135,-0.60735 -4.40908,-1.5379 -6.53539,-2.49509c-0.46833,-0.21082 -0.79517,-0.8077 -1.30873,-0.81315c-0.79048,-0.00839 -1.45107,0.80047 -2.24119,0.77549c-3.11394,-0.09843 -6.86633,-2.8545 -9.20664,-4.65577c-0.68155,-1.50887 -2.52925,-4.10701 -2.40874,-5.78851c0.00808,-0.11267 -0.01339,0.23202 -0.06468,0.33268c-0.29586,0.5807 -0.37587,1.42938 -0.96979,1.69772c-3.27105,1.4779 -4.77203,-0.11801 -7.00039,-2.3825c-2.09165,-2.12556 -4.16237,-5.59422 -5.65172,-8.16478c-0.68658,-1.185 -2.46059,-4.17636 -2.55834,-5.84259c-0.17632,-3.00602 1.13926,-5.7692 1.48333,-8.65126c0.28189,-2.3613 -0.1982,-5.01717 -0.11558,-7.40309c0.00429,-0.12384 0.00995,-0.24759 0.0168,-0.37124z"/><path d="M245.79504,177.64131c3.49291,-1.50179 7.34327,15.37677 9.74773,19.91891c2.40446,4.54215 7.15006,11.96804 9.86028,15.21775c6.14018,7.36244 20.06774,16.28716 20.06774,16.28716c0,0 -14.49045,-7.81486 -21.24562,-13.67567c-3.60697,-3.12941 -9.97376,-11.61851 -12.04591,-14.66093c-5.95293,-8.74033 -10.04539,-21.51306 -6.3842,-23.08721z"/></g><g data-paper-data="{&quot;index&quot;:null}"><path d="M266.16395,175.82518c-0.36531,-0.02917 -0.76538,-0.19845 -1.14535,-0.63919c-0.17039,-0.19765 7.87982,-7.18994 10.1579,-10.05073l0.04572,-0.02835l-0.01162,-0.01051l1.46472,-1.62049c0.12902,-0.14964 0.28563,-0.27992 0.46756,-0.38268c0.84606,-0.47781 1.91926,-0.17929 2.39709,0.66678c0.13295,0.23539 0.20579,0.48838 0.22347,0.74123c0.46355,-0.39832 0.9869,-0.78456 1.44412,-1.21931c0.72105,-0.68563 2.4063,-2.82784 3.09403,-3.39728c1.64835,-1.36481 3.75522,-2.13216 5.45272,-3.50275l0.15179,-0.0263l-0.02839,-0.05028l1.53193,-0.86516c0.20562,-0.11613 0.42464,-0.18638 0.64527,-0.21409c0.27661,-0.40026 0.5829,-0.7875 0.83947,-1.19375c1.81016,-2.86633 3.90191,-5.61858 7.06868,-7.05966c0.92453,-0.42073 1.94192,-1.44428 2.86856,-1.02823c0.69498,0.31203 1.1166,0.95829 1.48793,1.66608c0.50514,-1.16252 1.54944,-1.94159 2.74628,-3.3201c1.05408,-1.21409 1.78621,-2.6812 2.81425,-3.91742c0.79691,-0.95829 1.3233,-2.61378 2.56508,-2.72046c1.70912,-0.14682 2.82542,1.1628 3.66084,2.73455c1.0537,-2.2313 2.85637,-4.40987 4.2643,-5.67005c0.76679,-0.68633 1.55555,-1.78944 2.58029,-1.69504c1.26869,0.11688 2.54307,1.07935 3.11178,2.21944c0.6006,1.20403 -0.01792,2.69126 0.00886,4.0365c0.04668,2.34415 0.23252,4.57437 0.5979,6.84682c0.29208,-0.0397 0.62694,-0.07409 1.00937,-0.10288c2.65753,-0.20002 5.33357,1.60609 6.00344,4.24824c0.3605,1.42192 -0.15585,2.94101 -0.45457,4.3772c-0.68582,3.29721 -3.28514,5.68403 -4.98386,8.41099c-1.47546,2.36856 -3.234,4.60476 -5.39914,6.50865c-1.75112,1.53982 -3.71974,2.82288 -5.69318,4.06505c-0.43466,0.27358 -1.11271,0.2158 -1.40127,0.64066c-0.44416,0.65395 -0.13559,1.65165 -0.59338,2.29613c-1.80417,2.53993 -6.17563,4.14201 -8.97066,5.09564c-1.63405,-0.26665 -4.82056,-0.16414 -6.15485,-1.1945c-0.08941,-0.06904 0.1859,0.13947 0.2414,0.23787c0.3202,0.56765 0.98301,1.10369 0.87811,1.74691c-0.57773,3.54262 -2.73748,3.91055 -5.85653,4.51474c-2.92769,0.56712 -6.96281,0.374 -9.92816,0.19321c-1.36699,-0.08335 -4.84036,-0.25969 -6.28263,-1.09976c-2.60198,-1.51557 -4.17654,-4.13983 -6.38745,-6.02041c-1.8114,-1.54077 -4.28966,-2.60959 -6.23179,-3.99797c-0.1008,-0.07207 -0.20078,-0.14522 -0.3,-0.21931z"/><path d="M244.97601,169.52219c0.68053,-3.74068 16.87231,2.38605 21.98639,2.89481c5.11408,0.50876 13.92547,0.66185 18.13185,0.20108c9.52983,-1.0439 24.66807,-7.71183 24.66807,-7.71183c0,0 -14.52488,7.75071 -23.14373,10.13746c-4.60209,1.27442 -15.19591,1.88403 -18.8767,1.92784c-10.57427,0.12584 -23.47919,-3.52847 -22.76587,-7.44935z"/></g></g><path d="M206.7,165.56667v5h-11.6v5.8l4.40733,0.02917l-0.00733,5.77083h-4.4l0.2,15h-5.6v-31.6z" data-paper-data="{&quot;index&quot;:null}" fill="#000000" stroke="none" stroke-width="0"/><path d="M239.7,165.16667v5h-11.6v5.8l9.80733,0.02917l-0.00733,5.77083h-9.8l0.11205,9.40384l11.6311,-0.00871l0.05685,5.60487h-17.2v-31.6z" data-paper-data="{&quot;index&quot;:null}" fill="#000000" stroke="none" stroke-width="0"/><g stroke="none" stroke-width="0"><path d="M201.1,196.36667l10.81127,-29.6l9.38873,29.6z" fill="#000000"/><path d="M205.90563,199.16667l3.41408,-10.2l3.9831,0l2.56056,10.2z" fill="#dadada"/><path d="M209.80423,184.16667l1.70704,-6.6l1.70704,6.6z" fill="#dadada"/></g></g></g></svg>